# xmcd
#
# Track frame offsets:
#	150
#	14855
#	29210
#	46010
#	64525
#	81579
#	98079
#	112020
#	129957
#	145222
#	161297
#	179582
#	196217
#	211232
#
# Disc length: 3049 seconds
#
# Revision: 6
# Processed by: cddbd v1.5.2PL0 Copyright (c) Steve Scherf et al.
# Submitted via: audiograbber 1.83.01
#
DISCID=c60be70e
DTITLE=Just Friends - Friends forever
DYEAR=1996
DGENRE=Pop
TTITLE0=Ever and ever
TTITLE1=Come together
TTITLE2=Anytime anyplace
TTITLE3=The present that I want
TTITLE4=Open your heart
TTITLE5=Eight days a week
TTITLE6=Friends
TTITLE7=Good times and bad times
TTITLE8=I saw your smile
TTITLE9=Can't stop the rain
TTITLE10=I miss you
TTITLE11=Reach out
TTITLE12=Deep in my heart
TTITLE13=Just a little sign
EXTD=YEAR: 1996
EXTT0=
EXTT1=
EXTT2=
EXTT3=
EXTT4=
EXTT5=
EXTT6=
EXTT7=
EXTT8=
EXTT9=
EXTT10=
EXTT11=
EXTT12=
EXTT13=
PLAYORDER=
